<mxfile host="app.diagrams.net" modified="2020-11-28T09:00:49.717Z" agent="5.0 (Windows NT 10.0; Win64; x64) AppleWebKit/537.36 (KHTML, like Gecko) Chrome/87.0.4280.66 Safari/537.36" etag="9VJlyyl0huIvho3WDJco" version="13.10.2" type="github">
  <diagram name="Page-1" id="e7e014a7-5840-1c2e-5031-d8a46d1fe8dd">
    <mxGraphModel dx="1951" dy="1340" grid="1" gridSize="10" guides="1" tooltips="1" connect="1" arrows="1" fold="1" page="1" pageScale="1" pageWidth="1169" pageHeight="826" background="#ffffff" math="0" shadow="0">
      <root>
        <mxCell id="0" />
        <mxCell id="1" parent="0" />
        <mxCell id="T-LM_clHeI63fsYbq26t-49" value="" style="strokeWidth=1;shadow=0;dashed=0;align=center;html=1;shape=mxgraph.mockup.forms.rrect;rSize=0;strokeColor=#b85450;fillColor=#f8cecc;recursiveResize=0;" vertex="1" parent="1">
          <mxGeometry x="-730" y="-360" width="710" height="150" as="geometry" />
        </mxCell>
        <mxCell id="T-LM_clHeI63fsYbq26t-50" value="Milano Fashion week(Milano 15/09/2020) iscritti:200" style="shape=ellipse;rSize=0;fillColor=#eeeeee;strokeColor=#999999;gradientColor=#cccccc;html=1;align=left;spacingLeft=4;fontSize=17;fontColor=#666666;labelPosition=right;" vertex="1" parent="T-LM_clHeI63fsYbq26t-49">
          <mxGeometry x="8" y="7.5" width="15" height="15" as="geometry" />
        </mxCell>
        <mxCell id="T-LM_clHeI63fsYbq26t-51" value="Fashion Hub (Milano 22/04/2022) iscritti:300" style="shape=ellipse;rSize=0;fillColor=#eeeeee;strokeColor=#999999;gradientColor=#cccccc;html=1;align=left;spacingLeft=4;fontSize=17;fontColor=#666666;labelPosition=right;" vertex="1" parent="T-LM_clHeI63fsYbq26t-49">
          <mxGeometry x="8" y="37.5" width="15" height="15" as="geometry" />
        </mxCell>
        <mxCell id="T-LM_clHeI63fsYbq26t-52" value="Show Roma (Roma 10/10/2011) iscritti :400" style="shape=ellipse;rSize=0;fillColor=#aaaaaa;strokeColor=#444444;gradientColor=#666666;html=1;align=left;spacingLeft=4;fontSize=17;fontColor=#008cff;labelPosition=right;" vertex="1" parent="T-LM_clHeI63fsYbq26t-49">
          <mxGeometry x="8" y="67.5" width="15" height="15" as="geometry" />
        </mxCell>
        <mxCell id="T-LM_clHeI63fsYbq26t-53" value="" style="shape=ellipse;fillColor=#444444;strokeColor=none;html=1;" vertex="1" parent="T-LM_clHeI63fsYbq26t-52">
          <mxGeometry x="3" y="3" width="9" height="9" as="geometry" />
        </mxCell>
        <mxCell id="T-LM_clHeI63fsYbq26t-54" value="Show Venezia (Venezia 23/04/2020) iscritti:300" style="shape=ellipse;rSize=0;fillColor=#eeeeee;strokeColor=#999999;gradientColor=#cccccc;html=1;align=left;spacingLeft=4;fontSize=17;fontColor=#666666;labelPosition=right;" vertex="1" parent="T-LM_clHeI63fsYbq26t-49">
          <mxGeometry x="8" y="97.5" width="15" height="15" as="geometry" />
        </mxCell>
        <mxCell id="T-LM_clHeI63fsYbq26t-56" value="" style="rounded=1;whiteSpace=wrap;html=1;fontSize=16;" vertex="1" parent="T-LM_clHeI63fsYbq26t-49">
          <mxGeometry x="460" width="210" height="30" as="geometry" />
        </mxCell>
        <mxCell id="T-LM_clHeI63fsYbq26t-57" value="partecipa/iscriviti" style="text;html=1;strokeColor=none;fillColor=none;align=center;verticalAlign=middle;whiteSpace=wrap;rounded=0;fontSize=16;" vertex="1" parent="T-LM_clHeI63fsYbq26t-49">
          <mxGeometry x="540" y="5" width="40" height="20" as="geometry" />
        </mxCell>
        <mxCell id="T-LM_clHeI63fsYbq26t-58" value="" style="rounded=1;whiteSpace=wrap;html=1;fontSize=16;" vertex="1" parent="T-LM_clHeI63fsYbq26t-49">
          <mxGeometry x="460" y="30" width="210" height="30" as="geometry" />
        </mxCell>
        <mxCell id="T-LM_clHeI63fsYbq26t-59" value="partecipa/iscriviti" style="text;html=1;strokeColor=none;fillColor=none;align=center;verticalAlign=middle;whiteSpace=wrap;rounded=0;fontSize=16;" vertex="1" parent="T-LM_clHeI63fsYbq26t-49">
          <mxGeometry x="545" y="32.5" width="40" height="20" as="geometry" />
        </mxCell>
        <mxCell id="T-LM_clHeI63fsYbq26t-60" value="" style="rounded=1;whiteSpace=wrap;html=1;fontSize=16;" vertex="1" parent="T-LM_clHeI63fsYbq26t-49">
          <mxGeometry x="460" y="60" width="210" height="30" as="geometry" />
        </mxCell>
        <mxCell id="T-LM_clHeI63fsYbq26t-61" value="partecipa/iscriviti" style="text;html=1;strokeColor=none;fillColor=none;align=center;verticalAlign=middle;whiteSpace=wrap;rounded=0;fontSize=16;" vertex="1" parent="T-LM_clHeI63fsYbq26t-49">
          <mxGeometry x="540" y="62.5" width="40" height="20" as="geometry" />
        </mxCell>
        <mxCell id="T-LM_clHeI63fsYbq26t-66" value="" style="rounded=1;whiteSpace=wrap;html=1;fontSize=16;" vertex="1" parent="T-LM_clHeI63fsYbq26t-49">
          <mxGeometry x="460" y="90" width="210" height="30" as="geometry" />
        </mxCell>
        <mxCell id="T-LM_clHeI63fsYbq26t-67" value="partecipa/iscriviti" style="text;html=1;strokeColor=none;fillColor=none;align=center;verticalAlign=middle;whiteSpace=wrap;rounded=0;fontSize=16;" vertex="1" parent="T-LM_clHeI63fsYbq26t-49">
          <mxGeometry x="540" y="92.5" width="40" height="20" as="geometry" />
        </mxCell>
        <mxCell id="T-LM_clHeI63fsYbq26t-55" value="Eventi moda disponibili nei prossimi anni:" style="text;html=1;align=center;verticalAlign=middle;whiteSpace=wrap;rounded=0;fontStyle=3;fontSize=27;" vertex="1" parent="1">
          <mxGeometry x="-740" y="-535" width="620" height="90" as="geometry" />
        </mxCell>
        <mxCell id="T-LM_clHeI63fsYbq26t-68" value="iscritti totali :12000" style="text;html=1;strokeColor=none;fillColor=none;align=center;verticalAlign=middle;whiteSpace=wrap;rounded=0;fontSize=19;" vertex="1" parent="1">
          <mxGeometry x="-300" y="-433" width="230" height="21" as="geometry" />
        </mxCell>
      </root>
    </mxGraphModel>
  </diagram>
</mxfile>
